# xmcd
#
# Track frame offsets: 
#        150
#        11956
#        24306
#        41541
#        52299
#        63076
#        81025
#        94052
#        105095
#        112884
#        124268
#        135059
#
# Disc length: 1995 seconds
#
# Revision: 0
# Processed by: cddbd v1.5.2PL0 Copyright (c) Steve Scherf et al.
# Submitted via: ExactAudioCopyFreeDBPlugin 1.0
#
DISCID=8b07c90c
DTITLE=Jack Scott - Way To Survive
DYEAR=2015
DGENRE=Country
TTITLE0=Tennessee Saturday Night
TTITLE1=Woman (Sensuous Woman)
TTITLE2=I Just Came Home To Count The Memories
TTITLE3=Ribbon Of Darkness
TTITLE4=Wiggle On Out
TTITLE5=Trouble
TTITLE6=Honky Tonk Blues
TTITLE7=Hillbilly Fever
TTITLE8=Live Love And Like It
TTITLE9=You Don't Know What You've Got
TTITLE10=I'll Be Coming Back For More
TTITLE11=Way To Survive
EXTD=
EXTT0=
EXTT1=
EXTT2=
EXTT3=
EXTT4=
EXTT5=
EXTT6=
EXTT7=
EXTT8=
EXTT9=
EXTT10=
EXTT11=
PLAYORDER=
